<?xml version="1.0" standalone="no"?>
<!DOCTYPE svg PUBLIC "-//W3C//DTD SVG 20010904//EN"
 "http://www.w3.org/TR/2001/REC-SVG-20010904/DTD/svg10.dtd">
<svg version="1.0" xmlns="http://www.w3.org/2000/svg"
 width="1024.000000pt" height="1024.000000pt" viewBox="0 0 1024.000000 1024.000000"
 preserveAspectRatio="xMidYMid meet">
<metadata>
Created by potrace 1.11, written by Peter Selinger 2001-2013
</metadata>
<g transform="translate(0.000000,1024.000000) scale(0.100000,-0.100000)"
fill="#000000" stroke="none">
<path d="M0 5120 l0 -5120 5120 0 5120 0 0 5120 0 5120 -5120 0 -5120 0 0
-5120z m5605 2365 l0 -150 -137 -3 -138 -3 0 -149 0 -150 43 0 c61 0 226 -26
347 -55 615 -148 1143 -550 1459 -1112 110 -195 199 -440 241 -663 12 -63 23
-125 26 -137 4 -23 7 -23 149 -23 l145 0 0 -155 0 -155 -2560 0 -2560 0 0 150
0 150 145 0 c142 0 145 0 149 23 3 12 12 65 21 117 61 362 246 756 493 1050
307 366 727 632 1178 746 138 34 314 64 383 64 l41 0 0 150 0 149 -137 3 -138
3 -3 140 c-1 76 0 145 2 152 4 11 87 13 428 11 l423 -3 0 -150z m1513 -3077
c19 -40 29 -150 21 -221 -16 -131 -89 -259 -190 -333 -28 -20 -231 -123 -452
-229 -221 -106 -530 -254 -687 -329 l-284 -136 -843 0 -843 0 0 635 0 635 766
0 766 0 33 -33 c81 -81 64 -213 -35 -271 -33 -20 -52 -21 -432 -24 l-398 -3 0
-145 0 -144 415 0 c392 0 418 1 477 21 239 78 369 327 303 582 l-7 27 688 -2
689 -3 13 -27z m-3580 -610 l-3 -633 -457 -3 -458 -2 0 635 0 635 460 0 460 0
-2 -632z"/>
</g>
</svg>
